<svg width="304" height="48" viewBox="0 0 304 48" fill="none" xmlns="http://www.w3.org/2000/svg">
<g clip-path="url(#clip0_114_4)">
<g clip-path="url(#clip1_114_4)">
<rect opacity="0.1" width="48" height="48" rx="24" fill="#6D5DD3"/>
</g>
<path d="M24.5 23.6055C22.75 23.6055 21.3555 25.0273 21.3555 26.75C21.3555 28.5 22.75 29.8945 24.5 29.8945C26.2227 29.8945 27.6445 28.5 27.6445 26.75C27.6445 25.0273 26.2227 23.6055 24.5 23.6055ZM24.5 28.8008C23.3789 28.8008 22.4492 27.8984 22.4492 26.75C22.4492 25.6289 23.3516 24.7266 24.5 24.7266C25.6211 24.7266 26.5234 25.6289 26.5234 26.75C26.5234 27.8984 25.6211 28.8008 24.5 28.8008ZM28.4922 23.4961C28.4922 23.0859 28.1641 22.7578 27.7539 22.7578C27.3438 22.7578 27.0156 23.0859 27.0156 23.4961C27.0156 23.9062 27.3438 24.2344 27.7539 24.2344C28.1641 24.2344 28.4922 23.9062 28.4922 23.4961ZM30.5703 24.2344C30.5156 23.25 30.2969 22.375 29.5859 21.6641C28.875 20.9531 28 20.7344 27.0156 20.6797C26.0039 20.625 22.9688 20.625 21.957 20.6797C20.9727 20.7344 20.125 20.9531 19.3867 21.6641C18.6758 22.375 18.457 23.25 18.4023 24.2344C18.3477 25.2461 18.3477 28.2812 18.4023 29.293C18.457 30.2773 18.6758 31.125 19.3867 31.8633C20.125 32.5742 20.9727 32.793 21.957 32.8477C22.9688 32.9023 26.0039 32.9023 27.0156 32.8477C28 32.793 28.875 32.5742 29.5859 31.8633C30.2969 31.125 30.5156 30.2773 30.5703 29.293C30.625 28.2812 30.625 25.2461 30.5703 24.2344ZM29.2578 30.3594C29.0664 30.9062 28.6289 31.3164 28.1094 31.5352C27.2891 31.8633 25.375 31.7812 24.5 31.7812C23.5977 31.7812 21.6836 31.8633 20.8906 31.5352C20.3438 31.3164 19.9336 30.9062 19.7148 30.3594C19.3867 29.5664 19.4688 27.6523 19.4688 26.75C19.4688 25.875 19.3867 23.9609 19.7148 23.1406C19.9336 22.6211 20.3438 22.2109 20.8906 21.9922C21.6836 21.6641 23.5977 21.7461 24.5 21.7461C25.375 21.7461 27.2891 21.6641 28.1094 21.9922C28.6289 22.1836 29.0391 22.6211 29.2578 23.1406C29.5859 23.9609 29.5039 25.875 29.5039 26.75C29.5039 27.6523 29.5859 29.5664 29.2578 30.3594Z" fill="white"/>
</g>
<g clip-path="url(#clip2_114_4)">
<g clip-path="url(#clip3_114_4)">
<rect opacity="0.1" x="64" width="48" height="48" rx="24" fill="#6D5DD3"/>
</g>
<path d="M94.625 21.3086C94.625 21.1172 94.543 20.9531 94.4062 20.8164C94.2695 20.707 94.1055 20.625 93.9414 20.625H83.0586C82.8398 20.625 82.6758 20.707 82.5664 20.8164C82.4297 20.9531 82.375 21.1172 82.375 21.3086V32.1914C82.375 32.3828 82.4297 32.5469 82.5664 32.6836C82.6758 32.8203 82.8398 32.875 83.0586 32.875H88.9102V28.1172H87.3242V26.2852H88.9102V24.918C88.9102 24.1523 89.1289 23.5508 89.5664 23.1133C90.0039 22.7031 90.5781 22.4844 91.2891 22.4844C91.8359 22.4844 92.3281 22.5117 92.7109 22.5391V24.207H91.7266C91.3711 24.207 91.125 24.2891 90.9883 24.4531C90.8789 24.5898 90.8242 24.8086 90.8242 25.1094V26.2852H92.6562L92.4102 28.1172H90.8242V32.875H93.9414C94.1328 32.875 94.2969 32.8203 94.4336 32.6836C94.543 32.5469 94.625 32.3828 94.625 32.1914V21.3086Z" fill="white"/>
</g>
<g clip-path="url(#clip4_114_4)">
<g clip-path="url(#clip5_114_4)">
<rect opacity="0.1" x="128" width="48" height="48" rx="24" fill="#6D5DD3"/>
</g>
<path d="M158.051 23.9062C158.598 23.4961 159.09 23.0039 159.5 22.4023C158.953 22.6484 158.406 22.8125 157.859 22.8672C158.461 22.4844 158.898 21.9648 159.117 21.2812C158.543 21.6094 157.941 21.8555 157.285 21.9648C157.012 21.6914 156.684 21.4727 156.328 21.3086C155.973 21.1445 155.59 21.0625 155.18 21.0625C154.66 21.0625 154.195 21.1992 153.758 21.4453C153.32 21.7188 152.965 22.0742 152.719 22.5117C152.445 22.9492 152.336 23.4414 152.336 23.9336C152.336 24.1523 152.336 24.3711 152.391 24.5898C151.215 24.5352 150.121 24.2617 149.082 23.7148C148.043 23.1953 147.195 22.4844 146.484 21.582C146.211 22.0469 146.074 22.5391 146.074 23.0312C146.074 23.5234 146.184 23.9883 146.43 24.3984C146.648 24.8359 146.977 25.1641 147.359 25.4375C146.895 25.4375 146.457 25.3008 146.074 25.0547V25.1094C146.074 25.793 146.293 26.3945 146.73 26.9141C147.168 27.4609 147.715 27.7891 148.371 27.9258C148.098 27.9805 147.852 28.0078 147.605 28.0078C147.441 28.0078 147.25 28.0078 147.086 27.9805C147.25 28.5547 147.578 29.0195 148.07 29.4023C148.562 29.7852 149.109 29.9492 149.766 29.9492C148.699 30.7695 147.496 31.1797 146.184 31.1797C145.91 31.1797 145.691 31.1797 145.5 31.1523C146.812 32.0273 148.289 32.4375 149.902 32.4375C151.57 32.4375 153.047 32.0273 154.359 31.1523C155.535 30.3867 156.465 29.375 157.121 28.0625C157.75 26.8594 158.078 25.5742 158.078 24.2617C158.078 24.0977 158.051 23.9883 158.051 23.9062Z" fill="white"/>
</g>
<g clip-path="url(#clip6_114_4)">
<g clip-path="url(#clip7_114_4)">
<rect opacity="0.1" x="192" width="48" height="48" rx="24" fill="#6D5DD3"/>
</g>
<path d="M214.258 30.6055C214.258 30.6055 214.23 30.5781 214.203 30.5508C214.176 30.5508 214.148 30.5234 214.094 30.5234C213.984 30.5234 213.957 30.5781 213.957 30.6328C213.957 30.7148 213.984 30.7422 214.094 30.7422C214.203 30.7422 214.258 30.6875 214.258 30.6055ZM213.41 30.4961C213.41 30.4414 213.465 30.4141 213.574 30.4414C213.656 30.4688 213.684 30.4961 213.684 30.5508C213.684 30.6055 213.656 30.6328 213.629 30.6328C213.574 30.6602 213.547 30.6602 213.52 30.6328C213.465 30.6328 213.438 30.6055 213.41 30.5781C213.383 30.5508 213.383 30.5234 213.41 30.4961ZM214.613 30.4414C214.695 30.4414 214.75 30.4688 214.75 30.5234C214.75 30.5781 214.723 30.6328 214.641 30.6602C214.586 30.6602 214.559 30.6602 214.531 30.6602C214.504 30.6602 214.477 30.6055 214.477 30.5508C214.477 30.4961 214.504 30.4688 214.613 30.4414ZM216.418 19.9688C217.648 19.9688 218.797 20.2695 219.863 20.8438C220.902 21.4453 221.75 22.2383 222.352 23.2227C222.953 24.2617 223.281 25.4102 223.281 26.6406C223.281 28.1719 222.844 29.5117 221.996 30.7148C221.148 31.918 220.055 32.7383 218.688 33.1758C218.523 33.2305 218.414 33.2031 218.332 33.1211C218.25 33.0664 218.223 32.957 218.223 32.8477V30.5508C218.223 29.9766 218.059 29.5664 217.758 29.293C218.414 29.2383 218.934 29.1289 219.262 29.0195C219.754 28.8555 220.164 28.582 220.438 28.1992C220.738 27.7344 220.902 27.0781 220.902 26.2578C220.902 25.9297 220.82 25.6289 220.711 25.3555C220.602 25.1914 220.438 24.9453 220.191 24.6719C220.246 24.5078 220.301 24.2891 220.328 24.0156C220.328 23.6328 220.273 23.2227 220.137 22.8125C219.945 22.7578 219.699 22.8125 219.371 22.9219C219.152 23.0312 218.879 23.1406 218.605 23.3047L218.25 23.5508C217.676 23.3867 217.102 23.3047 216.5 23.3047C215.898 23.3047 215.352 23.3867 214.805 23.5508L214.449 23.3047C214.148 23.1406 213.875 23.0312 213.656 22.9219C213.328 22.8125 213.082 22.7578 212.918 22.8125C212.754 23.2227 212.672 23.6328 212.727 24.0156C212.727 24.2891 212.754 24.4805 212.836 24.6445C212.617 24.918 212.453 25.1914 212.344 25.4102C212.234 25.6289 212.207 25.9297 212.207 26.2578C212.207 27.0781 212.344 27.7344 212.645 28.1719C212.891 28.5547 213.273 28.8555 213.793 29.0195C214.121 29.1289 214.613 29.2383 215.27 29.293C215.023 29.5117 214.887 29.8398 214.832 30.2227C214.504 30.3867 214.203 30.4414 213.93 30.3867C213.438 30.3594 213.082 30.1133 212.836 29.6484C212.727 29.457 212.562 29.293 212.398 29.1562C212.262 29.1016 212.125 29.0195 211.988 28.9648L211.797 28.9375C211.578 28.9375 211.469 28.9922 211.469 29.0469C211.469 29.1016 211.496 29.1836 211.605 29.2383L211.742 29.3477C211.852 29.4297 211.988 29.5391 212.125 29.7031C212.234 29.8398 212.316 29.9766 212.398 30.1406L212.508 30.3594C212.59 30.6328 212.754 30.8516 213.027 30.9883C213.246 31.125 213.492 31.207 213.82 31.2344C214.039 31.2617 214.258 31.2617 214.504 31.207L214.805 31.1797L214.832 32.8477C214.832 32.957 214.777 33.0664 214.695 33.1211C214.613 33.2031 214.504 33.2305 214.367 33.1758C212.973 32.7383 211.852 31.918 211.004 30.7148C210.129 29.5117 209.719 28.1719 209.719 26.6406C209.719 25.4102 209.992 24.2891 210.594 23.25C211.168 22.2383 211.961 21.4453 213 20.8438C214.012 20.2695 215.16 19.9688 216.418 19.9688ZM212.371 29.4023C212.398 29.375 212.453 29.375 212.508 29.4297C212.562 29.4844 212.562 29.5391 212.535 29.5664C212.48 29.6211 212.453 29.5938 212.398 29.5391C212.344 29.4844 212.316 29.457 212.371 29.4023ZM212.07 29.1836C212.098 29.1562 212.152 29.1562 212.207 29.1836C212.262 29.2109 212.262 29.2383 212.262 29.293C212.234 29.3477 212.18 29.3477 212.125 29.293C212.07 29.2656 212.043 29.2383 212.07 29.1836ZM212.973 30.1406C212.973 30.1406 213 30.1406 213.055 30.1406C213.082 30.1406 213.109 30.168 213.137 30.1953C213.164 30.2227 213.191 30.25 213.191 30.2773C213.191 30.332 213.191 30.3594 213.191 30.3594C213.137 30.4141 213.055 30.4141 213 30.332C212.945 30.3047 212.945 30.2773 212.945 30.2227C212.945 30.1953 212.945 30.168 212.973 30.1406ZM212.645 29.7578C212.672 29.7578 212.699 29.7578 212.727 29.7578C212.754 29.7578 212.781 29.7852 212.809 29.8125C212.863 29.8945 212.863 29.9492 212.809 29.9766C212.781 30.0039 212.754 30.0039 212.727 29.9766C212.699 29.9766 212.672 29.9492 212.645 29.9219C212.59 29.8398 212.59 29.7852 212.645 29.7578Z" fill="white"/>
</g>
<g clip-path="url(#clip8_114_4)">
<g clip-path="url(#clip9_114_4)">
<rect opacity="0.1" x="256" width="48" height="48" rx="24" fill="#6D5DD3"/>
</g>
<path d="M280.5 23.6055C281.047 23.6055 281.566 23.7695 282.059 24.043C282.551 24.3164 282.934 24.6992 283.207 25.1914C283.48 25.6836 283.645 26.2031 283.645 26.75C283.645 27.3242 283.48 27.8438 283.207 28.3359C282.934 28.8281 282.551 29.2109 282.059 29.4844C281.566 29.7578 281.047 29.8945 280.5 29.8945C279.926 29.8945 279.406 29.7578 278.914 29.4844C278.422 29.2109 278.039 28.8281 277.766 28.3359C277.492 27.8438 277.355 27.3242 277.355 26.75C277.355 26.2031 277.492 25.6836 277.766 25.1914C278.039 24.6992 278.422 24.3164 278.914 24.043C279.406 23.7695 279.926 23.6055 280.5 23.6055ZM280.5 28.8008C281.047 28.8008 281.539 28.6094 281.949 28.1992C282.332 27.8164 282.551 27.3242 282.551 26.75C282.551 26.2031 282.332 25.7109 281.949 25.3008C281.539 24.918 281.047 24.6992 280.5 24.6992C279.926 24.6992 279.434 24.918 279.051 25.3008C278.641 25.7109 278.449 26.2031 278.449 26.75C278.449 27.3242 278.641 27.8164 279.051 28.1992C279.434 28.6094 279.926 28.8008 280.5 28.8008ZM284.52 23.4688C284.52 23.2773 284.438 23.1133 284.301 22.9492C284.137 22.8125 283.973 22.7305 283.781 22.7305C283.562 22.7305 283.398 22.8125 283.262 22.9492C283.098 23.1133 283.043 23.2773 283.043 23.4688C283.043 23.6875 283.098 23.8516 283.262 23.9883C283.398 24.1523 283.562 24.207 283.781 24.207C283.973 24.207 284.137 24.1523 284.273 23.9883C284.41 23.8516 284.492 23.6875 284.52 23.4688ZM286.598 24.207C286.598 24.7266 286.625 25.5742 286.625 26.75C286.625 27.9531 286.598 28.8008 286.57 29.3203C286.543 29.8398 286.461 30.2773 286.352 30.6602C286.188 31.125 285.914 31.5352 285.586 31.8633C285.258 32.1914 284.848 32.4375 284.41 32.6016C284.027 32.7383 283.562 32.8203 283.043 32.8477C282.523 32.875 281.676 32.875 280.5 32.875C279.297 32.875 278.449 32.875 277.93 32.8477C277.41 32.8203 276.973 32.7383 276.59 32.5742C276.125 32.4375 275.715 32.1914 275.387 31.8633C275.059 31.5352 274.812 31.125 274.648 30.6602C274.512 30.2773 274.43 29.8398 274.402 29.3203C274.375 28.8008 274.375 27.9531 274.375 26.75C274.375 25.5742 274.375 24.7266 274.402 24.207C274.43 23.6875 274.512 23.2227 274.648 22.8398C274.812 22.4023 275.059 21.9922 275.387 21.6641C275.715 21.3359 276.125 21.0625 276.59 20.8984C276.973 20.7891 277.41 20.707 277.93 20.6797C278.449 20.6523 279.297 20.625 280.5 20.625C281.676 20.625 282.523 20.6523 283.043 20.6797C283.562 20.707 284.027 20.7891 284.41 20.8984C284.848 21.0625 285.258 21.3359 285.586 21.6641C285.914 21.9922 286.188 22.4023 286.352 22.8398C286.461 23.2227 286.543 23.6875 286.598 24.207ZM285.285 30.3594C285.395 30.0586 285.449 29.5664 285.504 28.8828C285.504 28.5 285.531 27.9258 285.531 27.1875V26.3125C285.531 25.5742 285.504 25 285.504 24.6172C285.449 23.9336 285.395 23.4414 285.285 23.1406C285.066 22.5938 284.656 22.1836 284.109 21.9648C283.809 21.8555 283.316 21.8008 282.633 21.7461C282.223 21.7461 281.648 21.7188 280.938 21.7188H280.062C279.324 21.7188 278.75 21.7461 278.367 21.7461C277.684 21.8008 277.191 21.8555 276.891 21.9648C276.316 22.1836 275.934 22.5938 275.715 23.1406C275.605 23.4414 275.523 23.9336 275.496 24.6172C275.469 25.0273 275.469 25.6016 275.469 26.3125V27.1875C275.469 27.9258 275.469 28.5 275.496 28.8828C275.523 29.5664 275.605 30.0586 275.715 30.3594C275.934 30.9336 276.344 31.3164 276.891 31.5352C277.191 31.6445 277.684 31.7266 278.367 31.7539C278.75 31.7812 279.324 31.7812 280.062 31.7812H280.938C281.676 31.7812 282.25 31.7812 282.633 31.7539C283.316 31.7266 283.809 31.6445 284.109 31.5352C284.656 31.3164 285.066 30.9062 285.285 30.3594Z" fill="white"/>
</g>
<defs>
<clipPath id="clip0_114_4">
<rect width="48" height="48" fill="white"/>
</clipPath>
<clipPath id="clip1_114_4">
<rect width="48" height="48" fill="white"/>
</clipPath>
<clipPath id="clip2_114_4">
<rect width="48" height="48" fill="white" transform="translate(64)"/>
</clipPath>
<clipPath id="clip3_114_4">
<rect width="48" height="48" fill="white" transform="translate(64)"/>
</clipPath>
<clipPath id="clip4_114_4">
<rect width="48" height="48" fill="white" transform="translate(128)"/>
</clipPath>
<clipPath id="clip5_114_4">
<rect width="48" height="48" fill="white" transform="translate(128)"/>
</clipPath>
<clipPath id="clip6_114_4">
<rect width="48" height="48" fill="white" transform="translate(192)"/>
</clipPath>
<clipPath id="clip7_114_4">
<rect width="48" height="48" fill="white" transform="translate(192)"/>
</clipPath>
<clipPath id="clip8_114_4">
<rect width="48" height="48" fill="white" transform="translate(256)"/>
</clipPath>
<clipPath id="clip9_114_4">
<rect width="48" height="48" fill="white" transform="translate(256)"/>
</clipPath>
</defs>
</svg>
